<?xml version="1.0" encoding="UTF-8" standalone="no"?>
<!DOCTYPE svg PUBLIC "-//W3C//DTD SVG 1.0//EN" "http://www.w3.org/TR/2001/PR-SVG-20010719/DTD/svg10.dtd">
<svg width="21cm" height="16cm" viewBox="191 101 408 318" xmlns="http://www.w3.org/2000/svg" xmlns:xlink="http://www.w3.org/1999/xlink">
  <g>
    <rect style="fill: #ffffff" x="191" y="102" width="141.5" height="18"/>
    <rect style="fill: none; fill-opacity:0; stroke-width: 2; stroke: #000000" x="191" y="102" width="141.5" height="18"/>
    <text font-size="11.2" style="fill: #000000;text-anchor:middle;font-family:sans-serif;font-style:normal;font-weight:700" x="261.75" y="116">user</text>
    <rect style="fill: #ffffff" x="191" y="120" width="141.5" height="131"/>
    <rect style="fill: none; fill-opacity:0; stroke-width: 2; stroke: #000000" x="191" y="120" width="141.5" height="131"/>
    <polygon style="fill: #000000" points="194,130 196,133 198,130 196,127 "/>
    <text font-size="12.8" style="fill: #000000;text-anchor:start;font-family:monospace;font-style:normal;font-weight:700" x="200" y="136">id</text>
    <text font-size="12.8" style="fill: #000000;text-anchor:start;font-family:monospace;font-style:normal;font-weight:700" x="271.6" y="136">INTEGER</text>
    <ellipse style="fill: #000000" cx="196" cy="146" rx="2" ry="2"/>
    <text font-size="12.8" style="fill: #000000;text-anchor:start;font-family:monospace;font-style:normal;font-weight:normal" x="200" y="152">login</text>
    <text font-size="12.8" style="fill: #000000;text-anchor:start;font-family:monospace;font-style:normal;font-weight:normal" x="271.6" y="152">VARCHAR</text>
    <ellipse style="fill: #000000" cx="196" cy="162" rx="2" ry="2"/>
    <text font-size="12.8" style="fill: #000000;text-anchor:start;font-family:monospace;font-style:normal;font-weight:normal" x="200" y="168">password</text>
    <text font-size="12.8" style="fill: #000000;text-anchor:start;font-family:monospace;font-style:normal;font-weight:normal" x="271.6" y="168">VARCHAR</text>
    <ellipse style="fill: #000000" cx="196" cy="178" rx="2" ry="2"/>
    <text font-size="12.8" style="fill: #000000;text-anchor:start;font-family:monospace;font-style:normal;font-weight:normal" x="200" y="184">role</text>
    <text font-size="12.8" style="fill: #000000;text-anchor:start;font-family:monospace;font-style:normal;font-weight:normal" x="271.6" y="184">TINYINT</text>
    <text font-size="11.2" style="fill: #000000;text-anchor:start;font-family:sans-serif;font-style:oblique;font-weight:normal" x="205" y="198">0 - CLIENT</text>
    <text font-size="11.2" style="fill: #000000;text-anchor:start;font-family:sans-serif;font-style:oblique;font-weight:normal" x="205" y="212">1 - CASHIR</text>
    <text font-size="11.2" style="fill: #000000;text-anchor:start;font-family:sans-serif;font-style:oblique;font-weight:normal" x="205" y="226">2 - MANAGER</text>
    <text font-size="11.2" style="fill: #000000;text-anchor:start;font-family:sans-serif;font-style:oblique;font-weight:normal" x="205" y="240">3 - ADMIN</text>
  </g>
  <g>
    <rect style="fill: #ffffff" x="421.3" y="101.6" width="156.9" height="18"/>
    <rect style="fill: none; fill-opacity:0; stroke-width: 2; stroke: #000000" x="421.3" y="101.6" width="156.9" height="18"/>
    <text font-size="11.2" style="fill: #000000;text-anchor:middle;font-family:sans-serif;font-style:normal;font-weight:700" x="499.75" y="115.6">client</text>
    <rect style="fill: #ffffff" x="421.3" y="119.6" width="156.9" height="68"/>
    <rect style="fill: none; fill-opacity:0; stroke-width: 2; stroke: #000000" x="421.3" y="119.6" width="156.9" height="68"/>
    <polygon style="fill: #000000" points="424.3,129.6 426.3,132.6 428.3,129.6 426.3,126.6 "/>
    <text font-size="12.8" style="fill: #000000;text-anchor:start;font-family:monospace;font-style:normal;font-weight:700" x="430.3" y="135.6">id</text>
    <text font-size="12.8" style="fill: #000000;text-anchor:start;font-family:monospace;font-style:normal;font-weight:700" x="517.3" y="135.6">INTEGER</text>
    <ellipse style="fill: #000000" cx="426.3" cy="145.6" rx="2" ry="2"/>
    <text font-size="12.8" style="fill: #000000;text-anchor:start;font-family:monospace;font-style:normal;font-weight:normal" x="430.3" y="151.6">account_id</text>
    <text font-size="12.8" style="fill: #000000;text-anchor:start;font-family:monospace;font-style:normal;font-weight:normal" x="517.3" y="151.6">VARCHAR</text>
    <ellipse style="fill: #000000" cx="426.3" cy="161.6" rx="2" ry="2"/>
    <text font-size="12.8" style="fill: #000000;text-anchor:start;font-family:monospace;font-style:normal;font-weight:normal" x="430.3" y="167.6">ballance</text>
    <text font-size="12.8" style="fill: #000000;text-anchor:start;font-family:monospace;font-style:normal;font-weight:normal" x="517.3" y="167.6">LONG</text>
    <ellipse style="fill: #000000" cx="426.3" cy="177.6" rx="2" ry="2"/>
    <text font-size="12.8" style="fill: #000000;text-anchor:start;font-family:monospace;font-style:normal;font-weight:normal" x="430.3" y="183.6">is_active</text>
    <text font-size="12.8" style="fill: #000000;text-anchor:start;font-family:monospace;font-style:normal;font-weight:normal" x="517.3" y="183.6">BOOLEAN</text>
  </g>
  <g>
    <polyline style="fill: none; fill-opacity:0; stroke-width: 2; stroke: #000000" points="421.3,129.6 376.9,129.6 376.9,130 336.972,130 "/>
    <polyline style="fill: none; fill-opacity:0; stroke-width: 2; stroke: #000000" points="344.736,125 334.736,130 344.736,135 "/>
    <text font-size="9.6" style="fill: #000000;text-anchor:end;font-family:monospace;font-style:normal;font-weight:normal" x="417.3" y="125.6">1</text>
    <text font-size="9.6" style="fill: #000000;text-anchor:start;font-family:monospace;font-style:normal;font-weight:normal" x="336.5" y="126">1</text>
  </g>
  <g>
    <rect style="fill: #ffffff" x="375.3" y="211.6" width="203.1" height="18"/>
    <rect style="fill: none; fill-opacity:0; stroke-width: 2; stroke: #000000" x="375.3" y="211.6" width="203.1" height="18"/>
    <text font-size="11.2" style="fill: #000000;text-anchor:middle;font-family:sans-serif;font-style:normal;font-weight:700" x="476.85" y="225.6">transfer</text>
    <rect style="fill: #ffffff" x="375.3" y="229.6" width="203.1" height="84"/>
    <rect style="fill: none; fill-opacity:0; stroke-width: 2; stroke: #000000" x="375.3" y="229.6" width="203.1" height="84"/>
    <polygon style="fill: #000000" points="378.3,239.6 380.3,242.6 382.3,239.6 380.3,236.6 "/>
    <text font-size="12.8" style="fill: #000000;text-anchor:start;font-family:monospace;font-style:normal;font-weight:700" x="384.3" y="245.6">id</text>
    <text font-size="12.8" style="fill: #000000;text-anchor:start;font-family:monospace;font-style:normal;font-weight:700" x="502.1" y="245.6">INTEGER</text>
    <ellipse style="fill: none; fill-opacity:0; stroke-width: 0.2; stroke: #000000" cx="380.3" cy="255.6" rx="2" ry="2"/>
    <text font-size="12.8" style="fill: #000000;text-anchor:start;font-family:monospace;font-style:normal;font-weight:normal" x="384.3" y="261.6">source_id</text>
    <text font-size="12.8" style="fill: #000000;text-anchor:start;font-family:monospace;font-style:normal;font-weight:normal" x="502.1" y="261.6">INTEGER</text>
    <ellipse style="fill: none; fill-opacity:0; stroke-width: 0.2; stroke: #000000" cx="380.3" cy="271.6" rx="2" ry="2"/>
    <text font-size="12.8" style="fill: #000000;text-anchor:start;font-family:monospace;font-style:normal;font-weight:normal" x="384.3" y="277.6">destination_id</text>
    <text font-size="12.8" style="fill: #000000;text-anchor:start;font-family:monospace;font-style:normal;font-weight:normal" x="502.1" y="277.6">INTEGER</text>
    <ellipse style="fill: #000000" cx="380.3" cy="287.6" rx="2" ry="2"/>
    <text font-size="12.8" style="fill: #000000;text-anchor:start;font-family:monospace;font-style:normal;font-weight:normal" x="384.3" y="293.6">date</text>
    <text font-size="12.8" style="fill: #000000;text-anchor:start;font-family:monospace;font-style:normal;font-weight:normal" x="502.1" y="293.6">TIMESTAMP</text>
    <ellipse style="fill: #000000" cx="380.3" cy="303.6" rx="2" ry="2"/>
    <text font-size="12.8" style="fill: #000000;text-anchor:start;font-family:monospace;font-style:normal;font-weight:normal" x="384.3" y="309.6">sum</text>
    <text font-size="12.8" style="fill: #000000;text-anchor:start;font-family:monospace;font-style:normal;font-weight:normal" x="502.1" y="309.6">LONG</text>
  </g>
  <g>
    <polyline style="fill: none; fill-opacity:0; stroke-width: 2; stroke: #000000" points="578.4,255.6 598.4,255.6 598.4,129.6 587.936,129.6 "/>
    <polygon style="fill: #000000" points="580.436,129.6 590.436,124.6 587.936,129.6 590.436,134.6 "/>
    <polygon style="fill: none; fill-opacity:0; stroke-width: 2; stroke: #000000" points="580.436,129.6 590.436,124.6 587.936,129.6 590.436,134.6 "/>
    <text font-size="9.6" style="fill: #000000;text-anchor:start;font-family:monospace;font-style:normal;font-weight:normal" x="582.4" y="251.6">1</text>
    <text font-size="9.6" style="fill: #000000;text-anchor:start;font-family:monospace;font-style:normal;font-weight:normal" x="582.2" y="125.6">n</text>
  </g>
  <g>
    <polyline style="fill: none; fill-opacity:0; stroke-width: 2; stroke: #000000" points="578.4,271.6 598.4,271.6 598.4,129.6 587.936,129.6 "/>
    <polygon style="fill: #000000" points="580.436,129.6 590.436,124.6 587.936,129.6 590.436,134.6 "/>
    <polygon style="fill: none; fill-opacity:0; stroke-width: 2; stroke: #000000" points="580.436,129.6 590.436,124.6 587.936,129.6 590.436,134.6 "/>
    <text font-size="9.6" style="fill: #000000;text-anchor:start;font-family:monospace;font-style:normal;font-weight:normal" x="582.4" y="267.6">1</text>
    <text font-size="9.6" style="fill: #000000;text-anchor:start;font-family:monospace;font-style:normal;font-weight:normal" x="582.2" y="125.6">n</text>
  </g>
  <g>
    <polygon style="fill: #ffffff" points="368,352 574.2,352 586.2,364 586.2,418 368,418 "/>
    <polygon style="fill: none; fill-opacity:0; stroke-width: 2; stroke: #000000" points="368,352 574.2,352 586.2,364 586.2,418 368,418 "/>
    <polyline style="fill: none; fill-opacity:0; stroke-width: 1; stroke: #000000" points="574.2,352 574.2,364 586.2,364 "/>
    <text font-size="12.8" style="fill: #000000;text-anchor:start;font-family:monospace;font-style:normal;font-weight:normal" x="375" y="376.9">
      <tspan x="375" y="376.9">source_id и destination_id</tspan>
      <tspan x="375" y="392.9">не могут быть одновременно</tspan>
      <tspan x="375" y="408.9">равны NULL</tspan>
    </text>
  </g>
  <line style="fill: none; fill-opacity:0; stroke-width: 2; stroke-dasharray: 4; stroke: #000000" x1="476.981" y1="351" x2="476.85" y2="313.6"/>
</svg>
