<?xml version="1.0" encoding="UTF-8" standalone="no"?>
<!DOCTYPE svg PUBLIC "-//W3C//DTD SVG 1.0//EN" "http://www.w3.org/TR/2001/PR-SVG-20010719/DTD/svg10.dtd">
<svg width="31cm" height="14cm" viewBox="11 44 617 280" xmlns="http://www.w3.org/2000/svg" xmlns:xlink="http://www.w3.org/1999/xlink">
  <g>
    <ellipse style="fill: #ffffff" cx="54" cy="188" rx="6" ry="6"/>
    <ellipse style="fill: none; fill-opacity:0; stroke-width: 2; stroke: #000000" cx="54" cy="188" rx="6" ry="6"/>
    <line style="fill: none; fill-opacity:0; stroke-width: 2; stroke: #000000" x1="30" y1="200" x2="78" y2="200"/>
    <line style="fill: none; fill-opacity:0; stroke-width: 2; stroke: #000000" x1="54" y1="194" x2="54" y2="224"/>
    <line style="fill: none; fill-opacity:0; stroke-width: 2; stroke: #000000" x1="54" y1="224" x2="30" y2="250"/>
    <line style="fill: none; fill-opacity:0; stroke-width: 2; stroke: #000000" x1="54" y1="224" x2="78" y2="250"/>
    <text font-size="12.8" style="fill: #000000;text-anchor:middle;font-family:sans-serif;font-style:normal;font-weight:normal" x="54" y="273.9">
      <tspan x="54" y="273.9">Unauthorized</tspan>
      <tspan x="54" y="289.9">user</tspan>
    </text>
  </g>
  <g>
    <ellipse style="fill: #ffffff" cx="342.55" cy="74.1" rx="6" ry="6"/>
    <ellipse style="fill: none; fill-opacity:0; stroke-width: 2; stroke: #000000" cx="342.55" cy="74.1" rx="6" ry="6"/>
    <line style="fill: none; fill-opacity:0; stroke-width: 2; stroke: #000000" x1="318.55" y1="86.1" x2="366.55" y2="86.1"/>
    <line style="fill: none; fill-opacity:0; stroke-width: 2; stroke: #000000" x1="342.55" y1="80.1" x2="342.55" y2="110.1"/>
    <line style="fill: none; fill-opacity:0; stroke-width: 2; stroke: #000000" x1="342.55" y1="110.1" x2="318.55" y2="136.1"/>
    <line style="fill: none; fill-opacity:0; stroke-width: 2; stroke: #000000" x1="342.55" y1="110.1" x2="366.55" y2="136.1"/>
    <text font-size="12.8" style="fill: #000000;text-anchor:middle;font-family:sans-serif;font-style:italic;font-weight:normal" x="342.55" y="160">
      <tspan x="342.55" y="160">Authorized</tspan>
      <tspan x="342.55" y="176">user</tspan>
    </text>
  </g>
  <g>
    <ellipse style="fill: #ffffff" cx="531.15" cy="81.2" rx="6" ry="6"/>
    <ellipse style="fill: none; fill-opacity:0; stroke-width: 2; stroke: #000000" cx="531.15" cy="81.2" rx="6" ry="6"/>
    <line style="fill: none; fill-opacity:0; stroke-width: 2; stroke: #000000" x1="507.15" y1="93.2" x2="555.15" y2="93.2"/>
    <line style="fill: none; fill-opacity:0; stroke-width: 2; stroke: #000000" x1="531.15" y1="87.2" x2="531.15" y2="117.2"/>
    <line style="fill: none; fill-opacity:0; stroke-width: 2; stroke: #000000" x1="531.15" y1="117.2" x2="507.15" y2="143.2"/>
    <line style="fill: none; fill-opacity:0; stroke-width: 2; stroke: #000000" x1="531.15" y1="117.2" x2="555.15" y2="143.2"/>
    <text font-size="12.8" style="fill: #000000;text-anchor:middle;font-family:sans-serif;font-style:normal;font-weight:normal" x="531.15" y="167.1">
      <tspan x="531.15" y="167.1">Admin</tspan>
    </text>
  </g>
  <g>
    <ellipse style="fill: #ffffff" cx="257.75" cy="232.3" rx="6" ry="6"/>
    <ellipse style="fill: none; fill-opacity:0; stroke-width: 2; stroke: #000000" cx="257.75" cy="232.3" rx="6" ry="6"/>
    <line style="fill: none; fill-opacity:0; stroke-width: 2; stroke: #000000" x1="233.75" y1="244.3" x2="281.75" y2="244.3"/>
    <line style="fill: none; fill-opacity:0; stroke-width: 2; stroke: #000000" x1="257.75" y1="238.3" x2="257.75" y2="268.3"/>
    <line style="fill: none; fill-opacity:0; stroke-width: 2; stroke: #000000" x1="257.75" y1="268.3" x2="233.75" y2="294.3"/>
    <line style="fill: none; fill-opacity:0; stroke-width: 2; stroke: #000000" x1="257.75" y1="268.3" x2="281.75" y2="294.3"/>
    <text font-size="12.8" style="fill: #000000;text-anchor:middle;font-family:sans-serif;font-style:normal;font-weight:normal" x="257.75" y="318.2">
      <tspan x="257.75" y="318.2">Client</tspan>
    </text>
  </g>
  <g>
    <ellipse style="fill: #ffffff" cx="440.35" cy="232.4" rx="6" ry="6"/>
    <ellipse style="fill: none; fill-opacity:0; stroke-width: 2; stroke: #000000" cx="440.35" cy="232.4" rx="6" ry="6"/>
    <line style="fill: none; fill-opacity:0; stroke-width: 2; stroke: #000000" x1="416.35" y1="244.4" x2="464.35" y2="244.4"/>
    <line style="fill: none; fill-opacity:0; stroke-width: 2; stroke: #000000" x1="440.35" y1="238.4" x2="440.35" y2="268.4"/>
    <line style="fill: none; fill-opacity:0; stroke-width: 2; stroke: #000000" x1="440.35" y1="268.4" x2="416.35" y2="294.4"/>
    <line style="fill: none; fill-opacity:0; stroke-width: 2; stroke: #000000" x1="440.35" y1="268.4" x2="464.35" y2="294.4"/>
    <text font-size="12.8" style="fill: #000000;text-anchor:middle;font-family:sans-serif;font-style:normal;font-weight:normal" x="440.35" y="318.3">
      <tspan x="440.35" y="318.3">Cashier</tspan>
    </text>
  </g>
  <g>
    <ellipse style="fill: #ffffff" cx="599.95" cy="231.5" rx="6" ry="6"/>
    <ellipse style="fill: none; fill-opacity:0; stroke-width: 2; stroke: #000000" cx="599.95" cy="231.5" rx="6" ry="6"/>
    <line style="fill: none; fill-opacity:0; stroke-width: 2; stroke: #000000" x1="575.95" y1="243.5" x2="623.95" y2="243.5"/>
    <line style="fill: none; fill-opacity:0; stroke-width: 2; stroke: #000000" x1="599.95" y1="237.5" x2="599.95" y2="267.5"/>
    <line style="fill: none; fill-opacity:0; stroke-width: 2; stroke: #000000" x1="599.95" y1="267.5" x2="575.95" y2="293.5"/>
    <line style="fill: none; fill-opacity:0; stroke-width: 2; stroke: #000000" x1="599.95" y1="267.5" x2="623.95" y2="293.5"/>
    <text font-size="12.8" style="fill: #000000;text-anchor:middle;font-family:sans-serif;font-style:normal;font-weight:normal" x="599.95" y="317.4">
      <tspan x="599.95" y="317.4">Manager</tspan>
    </text>
  </g>
  <g>
    <line style="fill: none; fill-opacity:0; stroke-width: 2; stroke: #000000" x1="379.775" y1="110.631" x2="505.168" y2="116.072"/>
    <polygon style="fill: none; fill-opacity:0; stroke-width: 2; stroke: #000000" points="379.991,105.635 369.784,110.197 379.558,115.626 "/>
  </g>
  <g>
    <line style="fill: none; fill-opacity:0; stroke-width: 2; stroke: #000000" x1="283.67" y1="219.944" x2="301.646" y2="186.408"/>
    <polygon style="fill: none; fill-opacity:0; stroke-width: 2; stroke: #000000" points="306.053,188.771 306.371,177.595 297.24,184.046 "/>
  </g>
  <g>
    <line style="fill: none; fill-opacity:0; stroke-width: 2; stroke: #000000" x1="414.36" y1="226.332" x2="384.11" y2="177.37"/>
    <polygon style="fill: none; fill-opacity:0; stroke-width: 2; stroke: #000000" points="388.364,174.742 378.854,168.862 379.857,179.998 "/>
  </g>
  <g>
    <line style="fill: none; fill-opacity:0; stroke-width: 2; stroke: #000000" x1="571.876" y1="267.658" x2="478.585" y2="268.184"/>
    <polygon style="fill: none; fill-opacity:0; stroke-width: 2; stroke: #000000" points="478.557,263.184 468.585,268.241 478.613,273.184 "/>
  </g>
  <g>
    <ellipse style="fill: #ffffff" cx="56.8" cy="88" rx="34.8" ry="20"/>
    <ellipse style="fill: none; fill-opacity:0; stroke-width: 2; stroke: #000000" cx="56.8" cy="88" rx="34.8" ry="20"/>
    <text font-size="12.8" style="fill: #000000;text-anchor:middle;font-family:sans-serif;font-style:normal;font-weight:normal" x="56.8" y="91.9">
      <tspan x="56.8" y="91.9">Login</tspan>
    </text>
  </g>
  <g>
    <ellipse style="fill: #ffffff" cx="166.1" cy="65" rx="44.1" ry="20"/>
    <ellipse style="fill: none; fill-opacity:0; stroke-width: 2; stroke: #000000" cx="166.1" cy="65" rx="44.1" ry="20"/>
    <text font-size="12.8" style="fill: #000000;text-anchor:middle;font-family:sans-serif;font-style:normal;font-weight:normal" x="166.1" y="68.9">
      <tspan x="166.1" y="68.9">Logout</tspan>
    </text>
  </g>
  <g>
    <ellipse style="fill: #ffffff" cx="156" cy="144" rx="61" ry="32"/>
    <ellipse style="fill: none; fill-opacity:0; stroke-width: 2; stroke: #000000" cx="156" cy="144" rx="61" ry="32"/>
    <text font-size="12.8" style="fill: #000000;text-anchor:middle;font-family:sans-serif;font-style:normal;font-weight:normal" x="156" y="139.9">
      <tspan x="156" y="139.9">Change</tspan>
      <tspan x="156" y="155.9">password</tspan>
    </text>
  </g>
  <g>
    <line style="fill: none; fill-opacity:0; stroke-width: 2; stroke: #000000" x1="55.1324" y1="168.999" x2="56.1672" y2="118.735"/>
    <polygon style="fill: #000000" points="56.3216,111.237 61.1147,121.337 56.1672,118.735 51.1168,121.132 "/>
    <polygon style="fill: none; fill-opacity:0; stroke-width: 2; stroke: #000000" points="56.3216,111.237 61.1147,121.337 56.1672,118.735 51.1168,121.132 "/>
  </g>
  <g>
    <line style="fill: none; fill-opacity:0; stroke-width: 2; stroke: #000000" x1="307.43" y1="101.123" x2="220.615" y2="78.9337"/>
    <polygon style="fill: #000000" points="213.348,77.0765 224.275,74.7086 220.615,78.9337 221.799,84.3971 "/>
    <polygon style="fill: none; fill-opacity:0; stroke-width: 2; stroke: #000000" points="213.348,77.0765 224.275,74.7086 220.615,78.9337 221.799,84.3971 "/>
  </g>
  <g>
    <line style="fill: none; fill-opacity:0; stroke-width: 2; stroke: #000000" x1="307.424" y1="116.483" x2="227.577" y2="130.993"/>
    <polygon style="fill: #000000" points="220.197,132.334 229.142,125.627 227.577,130.993 230.93,135.466 "/>
    <polygon style="fill: none; fill-opacity:0; stroke-width: 2; stroke: #000000" points="220.197,132.334 229.142,125.627 227.577,130.993 230.93,135.466 "/>
  </g>
</svg>
