<?xml version="1.0" encoding="UTF-8" standalone="no"?>
<!DOCTYPE svg PUBLIC "-//W3C//DTD SVG 1.0//EN" "http://www.w3.org/TR/2001/PR-SVG-20010719/DTD/svg10.dtd">
<svg width="39cm" height="18cm" viewBox="94 -175 777 354" xmlns="http://www.w3.org/2000/svg" xmlns:xlink="http://www.w3.org/1999/xlink">
  <g>
    <ellipse style="fill: #ffffff" cx="342.55" cy="74.1" rx="6" ry="6"/>
    <ellipse style="fill: none; fill-opacity:0; stroke-width: 2; stroke: #000000" cx="342.55" cy="74.1" rx="6" ry="6"/>
    <line style="fill: none; fill-opacity:0; stroke-width: 2; stroke: #000000" x1="318.55" y1="86.1" x2="366.55" y2="86.1"/>
    <line style="fill: none; fill-opacity:0; stroke-width: 2; stroke: #000000" x1="342.55" y1="80.1" x2="342.55" y2="110.1"/>
    <line style="fill: none; fill-opacity:0; stroke-width: 2; stroke: #000000" x1="342.55" y1="110.1" x2="318.55" y2="136.1"/>
    <line style="fill: none; fill-opacity:0; stroke-width: 2; stroke: #000000" x1="342.55" y1="110.1" x2="366.55" y2="136.1"/>
    <text font-size="12.8" style="fill: #000000;text-anchor:middle;font-family:sans-serif;font-style:italic;font-weight:normal" x="342.55" y="160">
      <tspan x="342.55" y="160">Authorized</tspan>
      <tspan x="342.55" y="176">user</tspan>
    </text>
  </g>
  <g>
    <ellipse style="fill: #ffffff" cx="531.15" cy="81.2" rx="6" ry="6"/>
    <ellipse style="fill: none; fill-opacity:0; stroke-width: 2; stroke: #000000" cx="531.15" cy="81.2" rx="6" ry="6"/>
    <line style="fill: none; fill-opacity:0; stroke-width: 2; stroke: #000000" x1="507.15" y1="93.2" x2="555.15" y2="93.2"/>
    <line style="fill: none; fill-opacity:0; stroke-width: 2; stroke: #000000" x1="531.15" y1="87.2" x2="531.15" y2="117.2"/>
    <line style="fill: none; fill-opacity:0; stroke-width: 2; stroke: #000000" x1="531.15" y1="117.2" x2="507.15" y2="143.2"/>
    <line style="fill: none; fill-opacity:0; stroke-width: 2; stroke: #000000" x1="531.15" y1="117.2" x2="555.15" y2="143.2"/>
    <text font-size="12.8" style="fill: #000000;text-anchor:middle;font-family:sans-serif;font-style:normal;font-weight:normal" x="531.15" y="167.1">
      <tspan x="531.15" y="167.1">Admin</tspan>
    </text>
  </g>
  <g>
    <line style="fill: none; fill-opacity:0; stroke-width: 2; stroke: #000000" x1="379.775" y1="110.631" x2="505.168" y2="116.072"/>
    <polygon style="fill: none; fill-opacity:0; stroke-width: 2; stroke: #000000" points="379.991,105.635 369.784,110.197 379.558,115.626 "/>
  </g>
  <g>
    <ellipse style="fill: #ffffff" cx="166.1" cy="65" rx="44.1" ry="20"/>
    <ellipse style="fill: none; fill-opacity:0; stroke-width: 2; stroke: #000000" cx="166.1" cy="65" rx="44.1" ry="20"/>
    <text font-size="12.8" style="fill: #000000;text-anchor:middle;font-family:sans-serif;font-style:normal;font-weight:normal" x="166.1" y="68.9">
      <tspan x="166.1" y="68.9">Logout</tspan>
    </text>
  </g>
  <g>
    <ellipse style="fill: #ffffff" cx="156" cy="144" rx="61" ry="32"/>
    <ellipse style="fill: none; fill-opacity:0; stroke-width: 2; stroke: #000000" cx="156" cy="144" rx="61" ry="32"/>
    <text font-size="12.8" style="fill: #000000;text-anchor:middle;font-family:sans-serif;font-style:normal;font-weight:normal" x="156" y="139.9">
      <tspan x="156" y="139.9">Change</tspan>
      <tspan x="156" y="155.9">password</tspan>
    </text>
  </g>
  <g>
    <line style="fill: none; fill-opacity:0; stroke-width: 2; stroke: #000000" x1="307.43" y1="101.123" x2="220.615" y2="78.9337"/>
    <polygon style="fill: #000000" points="213.348,77.0765 224.275,74.7086 220.615,78.9337 221.799,84.3971 "/>
    <polygon style="fill: none; fill-opacity:0; stroke-width: 2; stroke: #000000" points="213.348,77.0765 224.275,74.7086 220.615,78.9337 221.799,84.3971 "/>
  </g>
  <g>
    <line style="fill: none; fill-opacity:0; stroke-width: 2; stroke: #000000" x1="307.424" y1="116.483" x2="227.577" y2="130.993"/>
    <polygon style="fill: #000000" points="220.197,132.334 229.142,125.627 227.577,130.993 230.93,135.466 "/>
    <polygon style="fill: none; fill-opacity:0; stroke-width: 2; stroke: #000000" points="220.197,132.334 229.142,125.627 227.577,130.993 230.93,135.466 "/>
  </g>
  <g>
    <ellipse style="fill: #ffffff" cx="350.3" cy="-14" rx="63.3" ry="32"/>
    <ellipse style="fill: none; fill-opacity:0; stroke-width: 2; stroke: #000000" cx="350.3" cy="-14" rx="63.3" ry="32"/>
    <text font-size="12.8" style="fill: #000000;text-anchor:middle;font-family:sans-serif;font-style:normal;font-weight:normal" x="350.3" y="-18.1">
      <tspan x="350.3" y="-18.1">Add new</tspan>
      <tspan x="350.3" y="-2.1">employee</tspan>
    </text>
  </g>
  <g>
    <ellipse style="fill: #ffffff" cx="524" cy="-60" rx="105" ry="35"/>
    <ellipse style="fill: none; fill-opacity:0; stroke-width: 2; stroke: #000000" cx="524" cy="-60" rx="105" ry="35"/>
    <text font-size="12.8" style="fill: #000000;text-anchor:middle;font-family:sans-serif;font-style:normal;font-weight:normal" x="524" y="-64.1">
      <tspan x="524" y="-64.1">Find users by</tspan>
      <tspan x="524" y="-48.1">role or user name</tspan>
    </text>
  </g>
  <g>
    <ellipse style="fill: #ffffff" cx="349.375" cy="-139.875" rx="102.375" ry="34.125"/>
    <ellipse style="fill: none; fill-opacity:0; stroke-width: 2; stroke: #000000" cx="349.375" cy="-139.875" rx="102.375" ry="34.125"/>
    <text font-size="12.8" style="fill: #000000;text-anchor:middle;font-family:sans-serif;font-style:normal;font-weight:normal" x="349.375" y="-143.975">
      <tspan x="349.375" y="-143.975">View information</tspan>
      <tspan x="349.375" y="-127.975">about user</tspan>
    </text>
  </g>
  <g>
    <ellipse style="fill: #ffffff" cx="692.725" cy="-132.092" rx="110.725" ry="36.9083"/>
    <ellipse style="fill: none; fill-opacity:0; stroke-width: 2; stroke: #000000" cx="692.725" cy="-132.092" rx="110.725" ry="36.9083"/>
    <text font-size="12.8" style="fill: #000000;text-anchor:middle;font-family:sans-serif;font-style:normal;font-weight:normal" x="692.725" y="-136.192">
      <tspan x="692.725" y="-136.192">Change user name</tspan>
      <tspan x="692.725" y="-120.192">or role of employee</tspan>
    </text>
  </g>
  <g>
    <ellipse style="fill: #ffffff" cx="770.7" cy="20.9" rx="98.7" ry="32.9"/>
    <ellipse style="fill: none; fill-opacity:0; stroke-width: 2; stroke: #000000" cx="770.7" cy="20.9" rx="98.7" ry="32.9"/>
    <text font-size="12.8" style="fill: #000000;text-anchor:middle;font-family:sans-serif;font-style:normal;font-weight:normal" x="770.7" y="16.8">
      <tspan x="770.7" y="16.8">Reset password</tspan>
      <tspan x="770.7" y="32.8">of user</tspan>
    </text>
  </g>
  <g>
    <ellipse style="fill: #ffffff" cx="733.3" cy="-53" rx="63.3" ry="32"/>
    <ellipse style="fill: none; fill-opacity:0; stroke-width: 2; stroke: #000000" cx="733.3" cy="-53" rx="63.3" ry="32"/>
    <text font-size="12.8" style="fill: #000000;text-anchor:middle;font-family:sans-serif;font-style:normal;font-weight:normal" x="733.3" y="-57.1">
      <tspan x="733.3" y="-57.1">Dissmiss</tspan>
      <tspan x="733.3" y="-41.1">employee</tspan>
    </text>
  </g>
  <g>
    <line style="fill: none; fill-opacity:0; stroke-width: 2; stroke: #000000" x1="505.188" y1="80.484" x2="379.831" y2="-96.802"/>
    <polygon style="fill: #000000" points="375.501,-102.926 385.357,-97.6475 379.831,-96.802 377.192,-91.8741 "/>
    <polygon style="fill: none; fill-opacity:0; stroke-width: 2; stroke: #000000" points="375.501,-102.926 385.357,-97.6475 379.831,-96.802 377.192,-91.8741 "/>
  </g>
  <g>
    <line style="fill: none; fill-opacity:0; stroke-width: 2; stroke: #000000" x1="505.166" y1="98.3496" x2="403.669" y2="24.7173"/>
    <polygon style="fill: #000000" points="397.598,20.3132 408.629,22.1382 403.669,24.7173 402.757,30.2325 "/>
    <polygon style="fill: none; fill-opacity:0; stroke-width: 2; stroke: #000000" points="397.598,20.3132 408.629,22.1382 403.669,24.7173 402.757,30.2325 "/>
  </g>
  <g>
    <line style="fill: none; fill-opacity:0; stroke-width: 2; stroke: #000000" x1="528.931" y1="62.2035" x2="525.845" y2="-14.2673"/>
    <polygon style="fill: #000000" points="525.543,-21.7612 530.942,-11.9709 525.845,-14.2673 520.95,-11.5677 "/>
    <polygon style="fill: none; fill-opacity:0; stroke-width: 2; stroke: #000000" points="525.543,-21.7612 530.942,-11.9709 525.845,-14.2673 520.95,-11.5677 "/>
  </g>
  <g>
    <line style="fill: none; fill-opacity:0; stroke-width: 2; stroke: #000000" x1="557.155" y1="77.0766" x2="662.874" y2="-86.0348"/>
    <polygon style="fill: #000000" points="666.953,-92.3285 665.71,-81.2175 662.874,-86.0348 657.318,-86.6564 "/>
    <polygon style="fill: none; fill-opacity:0; stroke-width: 2; stroke: #000000" points="666.953,-92.3285 665.71,-81.2175 662.874,-86.0348 657.318,-86.6564 "/>
  </g>
  <g>
    <line style="fill: none; fill-opacity:0; stroke-width: 2; stroke: #000000" x1="557.134" y1="95.3225" x2="686.654" y2="-13.7261"/>
    <polygon style="fill: #000000" points="692.391,-18.5566 687.961,-8.29106 686.654,-13.7261 681.521,-15.9408 "/>
    <polygon style="fill: none; fill-opacity:0; stroke-width: 2; stroke: #000000" points="692.391,-18.5566 687.961,-8.29106 686.654,-13.7261 681.521,-15.9408 "/>
  </g>
  <g>
    <line style="fill: none; fill-opacity:0; stroke-width: 2; stroke: #000000" x1="557.153" y1="106.747" x2="677.391" y2="58.4105"/>
    <polygon style="fill: #000000" points="684.35,55.613 676.937,63.9821 677.391,58.4105 673.207,54.7038 "/>
    <polygon style="fill: none; fill-opacity:0; stroke-width: 2; stroke: #000000" points="684.35,55.613 676.937,63.9821 677.391,58.4105 673.207,54.7038 "/>
  </g>
</svg>
